<mxfile host="app.diagrams.net" modified="2023-06-04T02:58:08.243Z" agent="Mozilla/5.0 (Windows NT 10.0; Win64; x64) AppleWebKit/537.36 (KHTML, like Gecko) Chrome/114.0.0.0 Safari/537.36" etag="4_ZIkxLXgVyg8Tb5wf0P" version="21.3.7" type="github">
  <diagram name="第 1 页" id="wSnmJ4HG-NBb-icWCbgJ">
    <mxGraphModel dx="954" dy="634" grid="1" gridSize="10" guides="1" tooltips="1" connect="1" arrows="1" fold="1" page="1" pageScale="1" pageWidth="827" pageHeight="1169" math="0" shadow="0">
      <root>
        <mxCell id="0" />
        <mxCell id="1" parent="0" />
        <mxCell id="QH9CZA3Y4ecUSDF3VbWD-1" value="事&lt;br&gt;实&lt;br&gt;表" style="rounded=0;whiteSpace=wrap;html=1;" vertex="1" parent="1">
          <mxGeometry x="100" y="160" width="40" height="120" as="geometry" />
        </mxCell>
        <mxCell id="QH9CZA3Y4ecUSDF3VbWD-2" value="宽表模型" style="rounded=0;whiteSpace=wrap;html=1;" vertex="1" parent="1">
          <mxGeometry x="60" y="80" width="120" height="40" as="geometry" />
        </mxCell>
        <mxCell id="QH9CZA3Y4ecUSDF3VbWD-3" value="" style="endArrow=none;html=1;rounded=0;dashed=1;" edge="1" parent="1">
          <mxGeometry width="50" height="50" relative="1" as="geometry">
            <mxPoint x="200" y="280" as="sourcePoint" />
            <mxPoint x="200" y="80" as="targetPoint" />
          </mxGeometry>
        </mxCell>
        <mxCell id="QH9CZA3Y4ecUSDF3VbWD-15" style="rounded=0;orthogonalLoop=1;jettySize=auto;html=1;entryX=1;entryY=0.5;entryDx=0;entryDy=0;startArrow=classic;startFill=1;" edge="1" parent="1" source="QH9CZA3Y4ecUSDF3VbWD-4" target="QH9CZA3Y4ecUSDF3VbWD-6">
          <mxGeometry relative="1" as="geometry" />
        </mxCell>
        <mxCell id="QH9CZA3Y4ecUSDF3VbWD-17" value="" style="rounded=0;orthogonalLoop=1;jettySize=auto;html=1;startArrow=classic;startFill=1;" edge="1" parent="1" source="QH9CZA3Y4ecUSDF3VbWD-4" target="QH9CZA3Y4ecUSDF3VbWD-9">
          <mxGeometry relative="1" as="geometry" />
        </mxCell>
        <mxCell id="QH9CZA3Y4ecUSDF3VbWD-4" value="事&lt;br&gt;实&lt;br&gt;表" style="rounded=0;whiteSpace=wrap;html=1;" vertex="1" parent="1">
          <mxGeometry x="340" y="160" width="40" height="120" as="geometry" />
        </mxCell>
        <mxCell id="QH9CZA3Y4ecUSDF3VbWD-6" value="维表A" style="ellipse;whiteSpace=wrap;html=1;" vertex="1" parent="1">
          <mxGeometry x="220" y="160" width="80" height="40" as="geometry" />
        </mxCell>
        <mxCell id="QH9CZA3Y4ecUSDF3VbWD-16" value="" style="rounded=0;orthogonalLoop=1;jettySize=auto;html=1;startArrow=classic;startFill=1;" edge="1" parent="1" source="QH9CZA3Y4ecUSDF3VbWD-7" target="QH9CZA3Y4ecUSDF3VbWD-4">
          <mxGeometry relative="1" as="geometry" />
        </mxCell>
        <mxCell id="QH9CZA3Y4ecUSDF3VbWD-7" value="维表B" style="ellipse;whiteSpace=wrap;html=1;" vertex="1" parent="1">
          <mxGeometry x="220" y="240" width="80" height="40" as="geometry" />
        </mxCell>
        <mxCell id="QH9CZA3Y4ecUSDF3VbWD-18" value="" style="rounded=0;orthogonalLoop=1;jettySize=auto;html=1;startArrow=classic;startFill=1;" edge="1" parent="1" source="QH9CZA3Y4ecUSDF3VbWD-8" target="QH9CZA3Y4ecUSDF3VbWD-4">
          <mxGeometry relative="1" as="geometry" />
        </mxCell>
        <mxCell id="QH9CZA3Y4ecUSDF3VbWD-8" value="维表C" style="ellipse;whiteSpace=wrap;html=1;" vertex="1" parent="1">
          <mxGeometry x="420" y="160" width="80" height="40" as="geometry" />
        </mxCell>
        <mxCell id="QH9CZA3Y4ecUSDF3VbWD-9" value="维表D" style="ellipse;whiteSpace=wrap;html=1;" vertex="1" parent="1">
          <mxGeometry x="420" y="240" width="80" height="40" as="geometry" />
        </mxCell>
        <mxCell id="QH9CZA3Y4ecUSDF3VbWD-10" value="星型模型" style="rounded=0;whiteSpace=wrap;html=1;" vertex="1" parent="1">
          <mxGeometry x="300" y="80" width="120" height="40" as="geometry" />
        </mxCell>
        <mxCell id="QH9CZA3Y4ecUSDF3VbWD-19" value="" style="endArrow=none;html=1;rounded=0;dashed=1;" edge="1" parent="1">
          <mxGeometry width="50" height="50" relative="1" as="geometry">
            <mxPoint x="520" y="280" as="sourcePoint" />
            <mxPoint x="520" y="80" as="targetPoint" />
          </mxGeometry>
        </mxCell>
        <mxCell id="QH9CZA3Y4ecUSDF3VbWD-21" style="rounded=0;orthogonalLoop=1;jettySize=auto;html=1;entryX=1;entryY=0.5;entryDx=0;entryDy=0;startArrow=classic;startFill=1;" edge="1" parent="1" source="QH9CZA3Y4ecUSDF3VbWD-23" target="QH9CZA3Y4ecUSDF3VbWD-24">
          <mxGeometry relative="1" as="geometry" />
        </mxCell>
        <mxCell id="QH9CZA3Y4ecUSDF3VbWD-22" value="" style="rounded=0;orthogonalLoop=1;jettySize=auto;html=1;startArrow=classic;startFill=1;" edge="1" parent="1" source="QH9CZA3Y4ecUSDF3VbWD-23" target="QH9CZA3Y4ecUSDF3VbWD-29">
          <mxGeometry relative="1" as="geometry" />
        </mxCell>
        <mxCell id="QH9CZA3Y4ecUSDF3VbWD-23" value="事&lt;br&gt;实&lt;br&gt;表" style="rounded=0;whiteSpace=wrap;html=1;" vertex="1" parent="1">
          <mxGeometry x="660" y="160" width="40" height="120" as="geometry" />
        </mxCell>
        <mxCell id="QH9CZA3Y4ecUSDF3VbWD-38" value="" style="edgeStyle=orthogonalEdgeStyle;rounded=0;orthogonalLoop=1;jettySize=auto;html=1;startArrow=classic;startFill=1;" edge="1" parent="1" source="QH9CZA3Y4ecUSDF3VbWD-24" target="QH9CZA3Y4ecUSDF3VbWD-30">
          <mxGeometry relative="1" as="geometry" />
        </mxCell>
        <mxCell id="QH9CZA3Y4ecUSDF3VbWD-24" value="维表A" style="ellipse;whiteSpace=wrap;html=1;" vertex="1" parent="1">
          <mxGeometry x="540" y="160" width="80" height="40" as="geometry" />
        </mxCell>
        <mxCell id="QH9CZA3Y4ecUSDF3VbWD-25" value="" style="rounded=0;orthogonalLoop=1;jettySize=auto;html=1;startArrow=classic;startFill=1;" edge="1" parent="1" source="QH9CZA3Y4ecUSDF3VbWD-26" target="QH9CZA3Y4ecUSDF3VbWD-23">
          <mxGeometry relative="1" as="geometry" />
        </mxCell>
        <mxCell id="QH9CZA3Y4ecUSDF3VbWD-26" value="维表B" style="ellipse;whiteSpace=wrap;html=1;" vertex="1" parent="1">
          <mxGeometry x="540" y="240" width="80" height="40" as="geometry" />
        </mxCell>
        <mxCell id="QH9CZA3Y4ecUSDF3VbWD-27" value="" style="rounded=0;orthogonalLoop=1;jettySize=auto;html=1;startArrow=classic;startFill=1;" edge="1" parent="1" source="QH9CZA3Y4ecUSDF3VbWD-28" target="QH9CZA3Y4ecUSDF3VbWD-23">
          <mxGeometry relative="1" as="geometry" />
        </mxCell>
        <mxCell id="QH9CZA3Y4ecUSDF3VbWD-39" value="" style="edgeStyle=orthogonalEdgeStyle;rounded=0;orthogonalLoop=1;jettySize=auto;html=1;startArrow=classic;startFill=1;" edge="1" parent="1" source="QH9CZA3Y4ecUSDF3VbWD-28" target="QH9CZA3Y4ecUSDF3VbWD-33">
          <mxGeometry relative="1" as="geometry" />
        </mxCell>
        <mxCell id="QH9CZA3Y4ecUSDF3VbWD-28" value="维表C" style="ellipse;whiteSpace=wrap;html=1;" vertex="1" parent="1">
          <mxGeometry x="740" y="160" width="80" height="40" as="geometry" />
        </mxCell>
        <mxCell id="QH9CZA3Y4ecUSDF3VbWD-29" value="维表D" style="ellipse;whiteSpace=wrap;html=1;" vertex="1" parent="1">
          <mxGeometry x="740" y="240" width="80" height="40" as="geometry" />
        </mxCell>
        <mxCell id="QH9CZA3Y4ecUSDF3VbWD-30" value="维表AA" style="ellipse;whiteSpace=wrap;html=1;" vertex="1" parent="1">
          <mxGeometry x="540" y="90" width="80" height="40" as="geometry" />
        </mxCell>
        <mxCell id="QH9CZA3Y4ecUSDF3VbWD-34" value="" style="edgeStyle=orthogonalEdgeStyle;rounded=0;orthogonalLoop=1;jettySize=auto;html=1;startArrow=classic;startFill=1;" edge="1" parent="1" source="QH9CZA3Y4ecUSDF3VbWD-31" target="QH9CZA3Y4ecUSDF3VbWD-26">
          <mxGeometry relative="1" as="geometry" />
        </mxCell>
        <mxCell id="QH9CZA3Y4ecUSDF3VbWD-31" value="维表BB" style="ellipse;whiteSpace=wrap;html=1;" vertex="1" parent="1">
          <mxGeometry x="540" y="310" width="80" height="40" as="geometry" />
        </mxCell>
        <mxCell id="QH9CZA3Y4ecUSDF3VbWD-35" value="" style="edgeStyle=orthogonalEdgeStyle;rounded=0;orthogonalLoop=1;jettySize=auto;html=1;startArrow=classic;startFill=1;" edge="1" parent="1" source="QH9CZA3Y4ecUSDF3VbWD-32" target="QH9CZA3Y4ecUSDF3VbWD-29">
          <mxGeometry relative="1" as="geometry" />
        </mxCell>
        <mxCell id="QH9CZA3Y4ecUSDF3VbWD-32" value="维表DD" style="ellipse;whiteSpace=wrap;html=1;" vertex="1" parent="1">
          <mxGeometry x="740" y="310" width="80" height="40" as="geometry" />
        </mxCell>
        <mxCell id="QH9CZA3Y4ecUSDF3VbWD-33" value="维表CC" style="ellipse;whiteSpace=wrap;html=1;" vertex="1" parent="1">
          <mxGeometry x="740" y="90" width="80" height="40" as="geometry" />
        </mxCell>
      </root>
    </mxGraphModel>
  </diagram>
</mxfile>
